HIERARCHY
ROOT Hips
{
 OFFSET 0.000000 0.000000 0.000000
 CHANNELS 6 Xposition Yposition Zposition Yrotation Xrotation Zrotation
 JOINT Chest
 {
  OFFSET 0.000000 9.857222 0.000240
  CHANNELS 3 Yrotation Xrotation Zrotation
  JOINT Chest2
  {
   OFFSET 0.000000 10.876940 -0.000436
   CHANNELS 3 Yrotation Xrotation Zrotation
   JOINT Chest3
   {
    OFFSET 0.000000 9.827798 0.000000
    CHANNELS 3 Yrotation Xrotation Zrotation
    JOINT Chest4
    {
     OFFSET 0.000000 9.827798 0.000000
     CHANNELS 3 Yrotation Xrotation Zrotation
     JOINT Neck
     {
      OFFSET 0.000000 13.831992 0.000000
      CHANNELS 3 Yrotation Xrotation Zrotation
      JOINT Head
      {
       OFFSET 0.000000 9.147643 -0.001036
       CHANNELS 3 Yrotation Xrotation Zrotation
       End Site
       {
        OFFSET 0.000000 17.515799 -0.000541
       }
      }
     }
     JOINT RightCollar
     {
      OFFSET -3.001579 7.717577 0.000000
      CHANNELS 3 Yrotation Xrotation Zrotation
      JOINT RightShoulder
      {
       OFFSET -14.002642 0.000000 0.000000
       CHANNELS 3 Yrotation Xrotation Zrotation
       JOINT RightElbow
       {
        OFFSET -30.053852 0.000000 0.000000
        CHANNELS 3 Yrotation Xrotation Zrotation
        JOINT RightWrist
        {
         OFFSET -24.564923 0.000000 -0.000000
         CHANNELS 3 Yrotation Xrotation Zrotation
         End Site
         {
          OFFSET -18.334355 0.000000 0.000000
         }
        }
       }
      }
     }
     JOINT LeftCollar
     {
      OFFSET 3.001579 7.717577 0.000000
      CHANNELS 3 Yrotation Xrotation Zrotation
      JOINT LeftShoulder
      {
       OFFSET 14.002642 0.000000 0.000000
       CHANNELS 3 Yrotation Xrotation Zrotation
       JOINT LeftElbow
       {
        OFFSET 30.053852 0.000000 0.000000
        CHANNELS 3 Yrotation Xrotation Zrotation
        JOINT LeftWrist
        {
         OFFSET 24.564923 0.000000 -0.000000
         CHANNELS 3 Yrotation Xrotation Zrotation
         End Site
         {
          OFFSET 18.334355 0.000000 0.000000
         }
        }
       }
      }
     }
    }
   }
  }
 }
 JOINT RightHip
 {
  OFFSET -8.003235 -0.001175 -0.000120
  CHANNELS 3 Yrotation Xrotation Zrotation
  JOINT RightKnee
  {
   OFFSET 0.000000 -41.759727 0.000113
   CHANNELS 3 Yrotation Xrotation Zrotation
   JOINT RightAnkle
   {
    OFFSET 0.000000 -40.728748 0.000159
    CHANNELS 3 Yrotation Xrotation Zrotation
    JOINT RightToe
    {
     OFFSET 0.000000 -6.515296 14.732841
     CHANNELS 3 Yrotation Xrotation Zrotation
     End Site
     {
      OFFSET 0.000000 -1.502839 6.412115
     }
    }
   }
  }
 }
 JOINT LeftHip
 {
  OFFSET 8.003235 -0.001175 -0.000120
  CHANNELS 3 Yrotation Xrotation Zrotation
  JOINT LeftKnee
  {
   OFFSET 0.000000 -41.759727 0.000113
   CHANNELS 3 Yrotation Xrotation Zrotation
   JOINT LeftAnkle
   {
    OFFSET 0.000000 -40.728748 0.000159
    CHANNELS 3 Yrotation Xrotation Zrotation
    JOINT LeftToe
    {
     OFFSET 0.000000 -6.515296 14.732841
     CHANNELS 3 Yrotation Xrotation Zrotation
     End Site
     {
      OFFSET 0.000000 -1.502839 6.412115
     }
    }
   }
  }
 }
}
MOTION
Frames: 8
Frame Time: 0.016667
0.000000 88.822259 0.000000 0.000000 -5.826342 0.000000 0.000000 11.116423 0.000000 0.000000 -5.290081 0.000000 0.000000 0.000000 0.000000 0.000000 0.000000 0.000000 0.000000 12.665069 0.000000 0.000000 0.575450 0.000000 0.000000 0.000000 0.000000 0.000000 0.000000 0.000000 2.337306 0.000000 0.000000 -2.337306 0.000000 0.000000 0.000000 0.000000 0.000000 0.000000 0.000000 0.000000 -2.337306 0.000000 0.000000 2.337306 0.000000 0.000000 0.000000 8.578828 0.000000 0.000000 1.905768 0.000000 0.000000 -4.658254 0.000000 0.000000 0.000000 0.000000 0.000000 8.578828 0.000000 0.000000 1.905768 0.000000 0.000000 -4.658254 0.000000 0.000000 0.000000 0.000000
-7.509896 90.366040 17.682906 -30.446653 -5.854099 0.539369 3.196503 -4.674457 -0.225769 1.657130 -1.849167 -0.105786 1.657130 -1.849167 -0.105786 1.242420 -1.387174 -0.074318 -0.555347 28.545010 0.873699 -1.157953 16.838193 1.660862 0.919574 23.638300 11.016032 36.803208 -4.158310 78.923869 28.984470 6.446822 7.919450 2.617108 1.625595 -12.732483 -20.939421 30.501350 -18.748372 -43.169083 17.422546 -72.215675 -39.446715 -0.025110 2.186357 8.738707 4.063515 14.583189 -11.030515 8.050280 -3.326215 3.683323 4.569346 -0.733231 0.359321 -6.324827 2.239791 -0.087781 0.157468 -0.065016 -33.650239 16.488013 -4.077602 32.931427 -1.023820 -8.271539 6.717465 -8.671336 0.865583 0.455410 -0.034401 0.201522
-7.522249 90.366521 17.688251 -30.512024 -5.924016 0.527159 3.210754 -4.626436 -0.211788 1.649413 -1.843524 -0.106841 1.649413 -1.843524 -0.106841 1.236630 -1.382943 -0.075148 -0.590061 28.548021 0.887824 -1.222340 16.844638 1.692735 0.966339 23.672426 11.042074 36.938576 -4.286217 78.848262 28.706055 6.545185 8.122728 2.554358 1.608984 -12.735624 -20.942392 30.496074 -18.766158 -43.049482 17.288316 -72.124317 -39.027506 -0.121266 1.915475 8.823048 4.095434 14.599076 -10.972137 8.122434 -3.315137 3.692897 4.570681 -0.735127 0.354580 -6.311567 2.243913 -0.085898 0.145581 -0.066505 -33.488350 16.585313 -4.078973 32.843255 -1.029782 -8.269387 6.690595 -8.681589 0.855333 0.464532 -0.035973 0.204451
-7.535594 90.366440 17.691456 -30.567120 -5.982449 0.520796 3.204253 -4.601723 -0.207381 1.642360 -1.835225 -0.106070 1.642360 -1.835225 -0.106070 1.231346 -1.376715 -0.074613 -0.643868 28.562542 0.900273 -1.320150 16.872813 1.725250 1.035996 23.726968 11.080468 37.175387 -4.405101 78.734827 28.356539 6.749423 8.402323 2.487738 1.613775 -12.698707 -20.956739 30.503779 -18.785196 -42.941047 17.151232 -72.015016 -38.772316 -0.345710 1.714097 8.887862 4.100868 14.640164 -10.935927 8.187467 -3.308760 3.707548 4.568182 -0.744718 0.348847 -6.304868 2.251555 -0.083012 0.138042 -0.065362 -33.386959 16.659760 -4.081383 32.864744 -1.020195 -8.276908 6.602222 -8.685523 0.852230 0.466260 -0.038123 0.202975
-7.550386 90.366621 17.690542 -30.627557 -6.035636 0.514587 3.185341 -4.592615 -0.201495 1.634549 -1.828142 -0.104077 1.634549 -1.828142 -0.104077 1.225497 -1.371396 -0.073161 -0.711616 28.592798 0.909081 -1.441786 16.930458 1.753828 1.135303 23.798072 11.132324 37.529913 -4.545174 78.633658 27.857141 7.043954 8.680626 2.423764 1.637287 -12.625551 -20.981196 30.536514 -18.816536 -42.750474 16.972945 -71.913598 -38.519270 -0.497893 1.499767 8.929651 4.067077 14.686698 -10.887530 8.237513 -3.298356 3.710507 4.578204 -0.746838 0.348583 -6.303595 2.248868 -0.081768 0.133788 -0.063108 -33.246284 16.731615 -4.073930 32.889531 -1.008795 -8.288914 6.533167 -8.685827 0.848147 0.470589 -0.042434 0.201806
-7.561112 90.367967 17.685389 -30.709505 -6.091297 0.519487 3.171752 -4.592319 -0.203970 1.629159 -1.825176 -0.101874 1.629159 -1.825176 -0.101874 1.221462 -1.369165 -0.071533 -0.792491 28.644451 0.911715 -1.585215 17.028042 1.773681 1.265822 23.886054 11.205906 38.045570 -4.677008 78.513900 27.205852 7.369409 8.921169 2.355356 1.649089 -12.489340 -21.008942 30.576912 -18.843194 -42.617984 16.829106 -71.848520 -38.241728 -0.576745 1.281908 8.972979 4.011210 14.712847 -10.811534 8.280922 -3.297462 3.698120 4.595390 -0.748021 0.359470 -6.305787 2.243304 -0.078117 0.133368 -0.058683 -33.032969 16.803436 -4.055091 32.831229 -1.001796 -8.304150 6.486306 -8.677172 0.856523 0.452079 -0.051218 0.191247
-7.573202 90.371837 17.674151 -30.801304 -6.159059 0.518735 3.167034 -4.592187 -0.197478 1.625579 -1.824525 -0.099167 1.625579 -1.824525 -0.099167 1.218785 -1.368669 -0.069515 -0.888467 28.714388 0.906636 -1.753680 17.159799 1.782414 1.399978 23.952076 11.290034 38.672774 -4.769706 78.356955 26.401576 7.834514 9.215881 2.276641 1.636513 -12.347806 -21.081973 30.671889 -18.903393 -42.573456 16.762079 -71.599003 -38.053093 -0.811468 0.942220 9.024098 3.963830 14.722443 -10.713814 8.333275 -3.284855 3.680187 4.612438 -0.749915 0.365110 -6.294007 2.230760 -0.075374 0.124455 -0.052549 -32.877149 16.872572 -4.052250 32.749073 -0.984780 -8.303404 6.497342 -8.676185 0.849210 0.448381 -0.060682 0.188978
-7.580053 90.377691 17.651956 -30.903338 -6.198341 0.524202 3.152530 -4.646738 -0.192591 1.626680 -1.838445 -0.093372 1.626680 -1.838445 -0.093372 1.219624 -1.379094 -0.065129 -0.990727 28.812450 0.895337 -1.931683 17.343851 1.780731 1.559791 24.079377 11.376830 39.320294 -4.887910 78.134307 25.428341 8.759166 9.691268 2.244839 1.547342 -12.407482 -21.199012 30.706475 -19.032236 -42.509283 16.864143 -71.306639 -38.085116 -1.270784 0.523173 9.088964 3.903246 14.710842 -10.590583 8.350728 -3.265260 3.665537 4.626826 -0.756247 0.353147 -6.272290 2.219576 -0.072594 0.115515 -0.046904 -32.879239 16.894587 -4.068446 32.777359 -0.959102 -8.311336 6.523568 -8.664005 0.847904 0.439270 -0.079333 0.185489
